# AST/ASF file generated using VICON BodyLanguage
# -----------------------------------------------
:version 1.10
:name VICON
:units
  mass 1.0
  length 0.45
  angle deg
:documentation
   .ast/.asf automatically generated from VICON data using
   VICON BodyBuilder and BodyLanguage model FoxedUp or BRILLIANT.MOD
:root
   order TX TY TZ RX RY RZ
   axis XYZ
   position 0 0 0  
   orientation 0 0 0 
:bonedata
  begin
     id 1 
     name lhipjoint
     direction 0.573633 -0.743009 0.344793 
     length 2.46257 
     axis 0 0 0  XYZ
  end
  begin
     id 2 
     name lfemur
     direction 0.34202 -0.939693 0  
     length 7.3842  
     axis 0 0 20  XYZ
    dof rx ry rz
    limits (-160.0 20.0)
           (-70.0 70.0)
           (-60.0 70.0)
  end
  begin
     id 3 
     name ltibia
     direction 0.34202 -0.939693 0   
     length 7.50407   
     axis 0 0 20   XYZ
    dof rx
    limits (-10.0 170.0)
  end
  begin
     id 4 
     name lfoot
     direction 0.110749 -0.304281 0.946123   
     length 1.95925   
     axis -90 7.62852e-016 20   XYZ
    dof rx rz
    limits (-45.0 90.0)
           (-70.0 20.0)
  end
  begin
     id 5 
     name ltoes
     direction 1.53554e-011 -4.21843e-011 1   
     length 0.978318   
     axis -90 7.62852e-016 20   XYZ
    dof rx
    limits (-90.0 20.0)
  end
  begin
     id 6 
     name rhipjoint
     direction -0.488109 -0.791693 0.367385   
     length 2.31113  
     axis 0 0 0  XYZ 
  end
  begin
     id 7 
     name rfemur
     direction -0.34202 -0.939693 0   
     length 7.40965   
     axis 0 0 -20   XYZ
    dof rx ry rz
    limits (-160.0 20.0)
           (-70.0 70.0)
           (-70.0 60.0)
  end
  begin
     id 8 
     name rtibia
     direction -0.34202 -0.939693 0   
     length 7.55548   
     axis 0 0 -20   XYZ
    dof rx
    limits (-10.0 170.0)
 end
 begin
     id 9 
     name rfoot
     direction -0.127594 -0.350561 0.927808   
     length 2.07199  
     axis -90 -7.62852e-016 -20   XYZ
    dof rx rz
    limits (-45.0 90.0)
           (-20.0 70.0)
  end
  begin
     id 10 
     name rtoes
     direction -1.53542e-011 -4.21909e-011 1   
     length 1.02667   
     axis -90 -7.62852e-016 -20   XYZ
    dof rx
    limits (-90.0 20.0)
  end
  begin
     id 11 
     name lowerback
     direction -0.0103342 0.997298 -0.0727278   
     length 2.02836   
     axis 0 0 0   XYZ
    dof rx ry rz
    limits (-20.0 45.0)
           (-30.0 30.0)
           (-30.0 30.0)
  end
  begin
     id 12 
     name upperback
     direction 0.0171146 0.999786 -0.011606   
     length 2.03179   
     axis 0 0 0   XYZ
    dof rx ry rz
    limits (-20.0 45.0)
           (-30.0 30.0)
           (-30.0 30.0)
  end
  begin
     id 13 
     name thorax
     direction 0.0216927 0.999513 0.0224343   
     length 2.03882   
     axis 0 0 0   XYZ
    dof rx ry rz
    limits (-20.0 45.0)
           (-30.0 30.0)
           (-30.0 30.0)
  end
  begin
     id 14 
     name lowerneck
     direction 0.000989287 0.993907 0.110221   
     length 1.75428   
     axis 0 0 0   XYZ
    dof rx ry rz
    limits (-20.0 45.0)
           (-30.0 30.0)
           (-30.0 30.0)
  end
  begin
     id 15 
     name upperneck
     direction -0.0172474 0.994813 -0.100253   
     length 1.77058   
     axis 0 0 0   XYZ
    dof rx ry rz
    limits (-20.0 45.0)
           (-30.0 30.0)
           (-30.0 30.0)
  end
  begin
     id 16
     name head
     direction -0.00486455 0.99894 -0.0457663  
     length 1.77427  
     axis 0 0 0   XYZ
    dof rx ry rz
    limits (-20.0 45.0)
           (-30.0 30.0)
           (-30.0 30.0)
  end
  begin
     id 17 
     name lclavicle
     direction 0.927314 0.333734 -0.169441  
     length 3.97584  
     axis 0 0 0   XYZ
    dof ry rz
    limits (-20.0 10.0)
           (0.0 20.0)
  end
  begin
     id 18 
     name lhumerus
     direction 1 -4.48965e-011 -3.25313e-028   
     length 4.76468   
     axis 180 -30 -90   XYZ
    dof rx ry rz
    limits (-60.0 90.0)
           (-90.0 90.0)
           (-90.0 90.0)
  end
  begin
     id 19
     name lradius
     direction 1 -4.48969e-011 -2.8465e-028   
     length 3.52712   
     axis -180 -30 -90   XYZ
    dof rx
    limits (-10.0 170.0)
  end
  begin
     id 20
     name lwrist
     direction 1 -4.4896e-011 -7.78665e-028   
     length 1.76356   
     axis 1.91374e-015 90 90   XYZ
    dof ry
    limits (-180.0 0.0)
 end
  begin
     id 21 
     name lhand
     direction 1 -4.48959e-011 -1.55733e-027   
     length 0.859564   
     axis 9.9371e-016 90 90   XYZ
    dof rx rz
    limits (-90.0 90.0)
           (-45.0 45.0)
  end
  begin
     id 22 
     name lfingers
     direction 1 -4.48965e-011 -3.11466e-027   
     length 0.693002   
     axis 1.98742e-015 90 90   XYZ
    dof rx
    limits (0.0 90.0)
  end
  begin
     id 23
     name lthumb
     direction 0.707107 -6.34948e-011 0.707107   
     length 0.995017   
     axis -90 45 2.85299e-015   XYZ
    dof rx rz
    limits (-45.0 45.0)
           (-45.0 45.0)
  end
  begin
     id 24 
     name rclavicle
     direction -0.899388 0.348209 -0.264294   
     length 3.68366  
     axis 0 0 0   XYZ 
    dof ry rz
    limits (-10.0 20.0)
           (-20.0 0.0)
  end
  begin
     id 25 
     name rhumerus
     direction -1 -4.48965e-011 -3.01536e-027  
     length 4.90577   
     axis 180 30 90   XYZ
    dof rx ry rz
    limits (-90.0 60.0)
           (-90.0 90.0)
           (-90.0 90.0)
  end
  begin
     id 26 
     name rradius
     direction -1 -4.48966e-011 3.93291e-027   
     length 3.42692   
     axis -180 30 90   XYZ
    dof rx
    limits (-10.0 170.0)
  end
  begin
     id 27 
     name rwrist
     direction -1 -4.48969e-011 -7.78665e-028   
     length 1.71346   
     axis 1.91374e-015 -90 -90   XYZ
    dof ry
    limits (-180.0 0.0)
  end
  begin
     id 28
     name rhand
     direction -1 -4.48967e-011 -1.55733e-027   
     length 0.740957   
     axis 9.9371e-016 -90 -90   XYZ
    dof rx rz
    limits (-90.0 90.0)
           (-45.0 45.0)
  end
  begin
     id 29
     name rfingers
     direction -1 -4.48949e-011 -3.11466e-027   
     length 0.597378   
     axis 1.98742e-015 -90 -90   XYZ
    dof rx
    limits (0.0 90.0)
  end
  begin
     id 30
     name rthumb
     direction -0.707107 -6.34931e-011 0.707107   
     length 0.857719   
     axis -90 -45 -2.85299e-015   XYZ
    dof rx rz
    limits (-45.0 45.0)
           (-45.0 45.0)
  end
:hierarchy
  begin
    root lhipjoint rhipjoint lowerback
    lhipjoint lfemur
    lfemur ltibia
    ltibia lfoot
    lfoot ltoes
    rhipjoint rfemur
    rfemur rtibia
    rtibia rfoot
    rfoot rtoes
    lowerback upperback
    upperback thorax
    thorax lowerneck lclavicle rclavicle
    lowerneck upperneck
    upperneck head
    lclavicle lhumerus
    lhumerus lradius
    lradius lwrist
    lwrist lhand lthumb
    lhand lfingers
    rclavicle rhumerus
    rhumerus rradius
    rradius rwrist
    rwrist rhand rthumb
    rhand rfingers
  end

#!OML:ASF E:\I on waltz\AllaLogoMonkeySwing\Project 1\Capture day 1\Session 1\Subject1.ASF
:FULLY-SPECIFIED
:DEGREES
16
root -3.36942 17.177 -15.3081 -0.847038 4.67537 3.5648
lowerback 8.84023 -2.79584 -9.71227
upperback 0.580953 -4.61345 1.63398
thorax -3.44593 -2.1397 7.7031
lowerneck -0.266168 -8.01471 -5.9826
upperneck 6.79499 -11.2156 9.03864
head 2.91135 -5.49079 3.31741
rclavicle -1.01827e-013 1.59028e-014
rhumerus 23.1762 -1.68529 -50.8676
rradius 134.548
rwrist -6.60771
rhand -15.9123 -37.5255
rfingers 7.12502
rthumb 10.2847 -67.2541
lclavicle -1.01827e-013 1.59028e-014
lhumerus -31.631 25.1408 80.7774
lradius 34.3035
lwrist -6.11592
lhand -7.08324 -15.2912
lfingers 7.12502
lthumb 18.7908 13.8212
rfemur -25.2908 -3.76156 6.30482
rtibia 43.834
rfoot -20.1174 -9.86841
rtoes 24.5081
lfemur -2.68255 8.80576 -25.9152
ltibia 31.9967
lfoot -23.106 13.9856
ltoes -29.0566
17
root -3.34643 17.1736 -15.3946 -0.8415 4.57877 3.56494
lowerback 9.01116 -2.64819 -9.88959
upperback 0.615749 -4.4516 1.60946
thorax -3.52598 -2.0529 7.77516
lowerneck -0.417467 -7.97996 -6.18146
upperneck 6.74802 -11.1606 9.12229
head 2.93356 -5.46272 3.36967
rclavicle 1.36167e-014 -3.18055e-015
rhumerus 23.0697 -1.5651 -51.1545
rradius 134.606
rwrist -6.42998
rhand -15.9117 -37.0272
rfingers 7.12502
rthumb 10.2853 -66.7557
lclavicle 1.36167e-014 -3.18055e-015
lhumerus -32.4161 26.0621 79.5159
lradius 33.1382
lwrist -6.77575
lhand -7.36599 -15.0472
lfingers 7.12502
lthumb 18.5188 14.0913
rfemur -25.3075 -4.31098 6.6322
rtibia 45.375
rfoot -20.45 -9.42124
rtoes 23.3695
lfemur -3.19081 8.78784 -26.1094
ltibia 32.3493
lfoot -23.1094 14.0402
ltoes -28.5771
18
root -3.32533 17.1715 -15.476 -0.841935 4.5904 3.45317
lowerback 9.10849 -2.71473 -10.0341
upperback 0.678475 -4.56296 1.58151
thorax -3.4823 -2.11128 7.84104
lowerneck -0.533611 -7.81563 -5.94597
upperneck 6.75077 -10.921 8.87466
head 2.90835 -5.34227 3.26699
rclavicle 5.73245e-014 -7.95139e-015
rhumerus 23.0815 -1.09143 -51.8388
rradius 134.629
rwrist -6.26345
rhand -15.4827 -36.5801
rfingers 7.12502
rthumb 10.6991 -66.2876
lclavicle 5.73245e-014 -7.95139e-015
lhumerus -33.4375 27.4037 77.7353
lradius 32.0148
lwrist -7.6376
lhand -7.40994 -14.8522
lfingers 7.12502
lthumb 18.4765 14.2903
rfemur -25.2317 -4.84877 7.10505
rtibia 47.0376
rfoot -20.9339 -9.28723
rtoes 21.4707
lfemur -3.68095 8.89091 -26.1163
ltibia 32.7272
lfoot -23.2159 13.8594
ltoes -28.0751
19
root -3.30928 17.166 -15.5518 -0.807095 4.75181 3.57823
lowerback 9.17123 -2.64919 -10.2161
upperback 0.769477 -4.49991 1.48845
thorax -3.42751 -2.08439 7.83929
lowerneck -0.634829 -7.87039 -6.06812
upperneck 6.57749 -10.9739 8.86749
head 2.88365 -5.3716 3.27965
rclavicle 5.9536e-014 -5.56597e-015
rhumerus 22.7408 -0.938888 -52.1941
rradius 134.716
rwrist -6.17619
rhand -15.1487 -36.0522
rfingers 7.12502
rthumb 11.0214 -65.7429
lclavicle 5.9536e-014 -5.56597e-015
lhumerus -34.2707 28.5428 76.214
lradius 30.7482
lwrist -8.73539
lhand -7.16521 -14.5428
lfingers 7.12502
lthumb 18.7119 14.5772
rfemur -25.0896 -5.49525 7.33517
rtibia 48.7355
rfoot -21.2871 -9.25256
rtoes 20.516
lfemur -4.17305 8.93162 -26.3591
ltibia 33.098
lfoot -23.3165 13.645
ltoes -27.5594
20
root -3.2991 17.1602 -15.6221 -0.754576 5.04203 3.76271
lowerback 9.30433 -2.64712 -10.4666
upperback 0.768125 -4.54283 1.35078
thorax -3.48683 -2.09839 7.84718
lowerneck -0.534425 -7.88892 -6.21706
upperneck 6.3503 -10.9928 9.00122
head 2.81638 -5.38722 3.34992
rclavicle 6.68413e-015 1.98785e-015
rhumerus 22.2573 -0.610857 -52.6148
rradius 134.775
rwrist -6.18901
rhand -14.8584 -35.4726
rfingers 7.12502
rthumb 11.3013 -65.1481
lclavicle 6.68413e-015 1.98785e-015
lhumerus -35.4072 29.9214 74.3637
lradius 29.5449
lwrist -10.0758
lhand -6.92706 -13.9721
lfingers 7.12502
lthumb 18.941 15.1257
rfemur -24.8412 -6.09691 7.51519
rtibia 50.3939
rfoot -21.7178 -9.36229
rtoes 20.3228
lfemur -4.65479 8.95278 -26.6328
ltibia 33.4299
lfoot -23.3216 13.4195
ltoes -27.4486
